<svg width="139" height="32" fill="none" xmlns="http://www.w3.org/2000/svg"><path d="M41.697 22.154c-.927 0-1.652-.131-2.175-.394a2.199 2.199 0 01-1.097-1.182c-.209-.525-.313-1.174-.313-1.95v-4.39c0-1.26.28-2.186.842-2.777.562-.604 1.476-.906 2.743-.906h5.898c.902 0 1.588.053 2.058.158.483.092.725.19.725.295l-.392 1.635c-.222-.04-.882-.08-1.979-.119-1.084-.052-2.665-.079-4.742-.079h-1c-1.044 0-1.567.467-1.567 1.399v5.021c0 .447.111.795.333 1.044.235.236.647.354 1.235.354h.803c2.169 0 3.847-.02 5.036-.059 1.202-.052 1.946-.105 2.234-.157l.803 1.3c0 .065-.11.164-.333.295-.209.131-.6.25-1.176.354-.574.105-1.404.158-2.488.158h-5.448zm13.538 0c-.993 0-1.711-.23-2.155-.69-.444-.472-.666-1.115-.666-1.93 0-.853.228-1.509.685-1.968.47-.46 1.183-.69 2.136-.69h1c.98 0 1.861.027 2.645.08.784.052 1.43.104 1.94.157v-1.3c0-.118-.013-.236-.04-.354a.468.468 0 00-.235-.316c-.13-.078-.352-.118-.666-.118h-.98a66.81 66.81 0 00-3.566.079c-.953.04-1.6.079-1.94.118l-.215-1.496c0-.184.496-.296 1.489-.335.993-.04 2.652-.06 4.977-.06h.98c.653 0 1.156.093 1.508.276.353.184.602.414.745.69.157.275.249.558.274.846.04.276.06.512.06.71v6.3h-1.608l-.764-.393c-.548.092-1.208.184-1.979.276-.77.078-1.652.118-2.645.118h-.98zm.51-1.694h4.487c.287 0 .457-.026.51-.079.052-.052.078-.216.078-.492v-1.516h-5.075c-.353 0-.601.085-.745.256-.13.17-.196.44-.196.807 0 .368.078.63.235.788.157.157.392.236.706.236zm9.726 1.694v-8.822h1.607l.744.393c.34-.183.706-.328 1.097-.433.392-.105.889-.157 1.49-.157.953 0 1.724.105 2.312.315.6.21 1 .367 1.195.473l-.686 1.713a6.139 6.139 0 00-.784-.296 9.296 9.296 0 00-1.254-.354 7.479 7.479 0 00-1.587-.158h-.215c-.627 0-1.039.125-1.235.375-.183.249-.28.662-.294 1.24v5.71h-2.39zm12.207 0c-.653 0-1.156-.085-1.51-.256-.352-.17-.607-.387-.763-.65a2.384 2.384 0 01-.275-.827 8.973 8.973 0 01-.039-.788v-3.78c0-.198.014-.434.04-.71.039-.288.13-.57.274-.846.156-.276.411-.506.764-.69.366-.183.869-.275 1.509-.275h4.213c.862 0 1.535.085 2.018.256.496.157.842.42 1.038.787.21.368.314.86.314 1.477v2.915h-3.43a42.2 42.2 0 01-2.88-.079 96.506 96.506 0 00-1.47-.098v1.083c-.012.525.301.787.941.787h1c.705 0 1.39-.006 2.057-.02.68-.026 1.3-.052 1.862-.078.562-.04 1.012-.072 1.352-.099l.783 1.28c0 .407-1.286.61-3.86.61h-3.938zm-.196-5.08h5.388v-1.261c0-.263-.032-.446-.098-.552-.052-.104-.221-.17-.51-.196-.286-.027-.776-.04-1.469-.04h-2.37c-.628 0-.941.263-.941.788v1.26zm12.543 5.08c-.889 0-1.541-.04-1.96-.118-.418-.08-.627-.171-.627-.276l.784-1.713c.3.052 1.045.105 2.234.157 1.202.04 2.848.06 4.938.06h.372c.562 0 .96-.1 1.195-.296.236-.21.353-.558.353-1.044v-.393c0-.46-.098-.788-.294-.985-.183-.197-.6-.296-1.254-.296H91.22c-1.32 0-2.28-.242-2.88-.728-.601-.5-.902-1.306-.902-2.422v-.315c0-.578.105-1.11.314-1.595.222-.486.594-.873 1.117-1.162.522-.302 1.24-.453 2.155-.453h5.33c.888 0 1.607.046 2.155.138.549.092.823.19.823.295l-.392 1.654c-.34-.04-1.11-.079-2.312-.118a116.624 116.624 0 00-4.84-.079l-.215-.02c-.6 0-1.006.125-1.215.375-.209.236-.32.538-.333.905v.335c0 .433.117.762.352.985.249.21.654.315 1.215.315h4.35c.836 0 1.548.085 2.136.256.588.17 1.039.486 1.352.945.314.447.47 1.11.47 1.99v.314c0 .985-.254 1.78-.764 2.383-.496.604-1.364.906-2.606.906h-6.505zm14.615 0c-.653 0-1.156-.085-1.509-.256-.352-.17-.607-.387-.765-.65a2.384 2.384 0 01-.273-.827 8.49 8.49 0 01-.039-.788v-3.78c0-.198.012-.434.039-.71a2.58 2.58 0 01.273-.846c.158-.276.413-.506.765-.69.366-.183.869-.275 1.509-.275h4.213c.862 0 1.534.085 2.018.256.496.157.843.42 1.039.787.208.368.313.86.313 1.477v2.915h-3.429c-1.176 0-2.136-.026-2.88-.079a97.703 97.703 0 00-1.47-.098v1.083c-.013.525.3.787.941.787h.999c.705 0 1.391-.006 2.057-.02.679-.026 1.3-.052 1.862-.078.561-.04 1.012-.072 1.352-.099l.784 1.28c0 .407-1.287.61-3.86.61h-3.939zm-.196-5.08h5.389v-1.261c0-.263-.033-.446-.098-.552-.053-.104-.223-.17-.51-.196-.288-.027-.777-.04-1.469-.04h-2.371c-.627 0-.941.263-.941.788v1.26zm9.956 5.08v-8.822h1.607l.784.393a23.318 23.318 0 011.979-.275 26.312 26.312 0 012.645-.118h.98c.653 0 1.156.092 1.508.275.353.184.602.414.745.69.157.275.249.558.274.846.04.276.059.512.059.71v6.3h-2.39v-6.34c0-.525-.314-.788-.941-.788h-4.272c-.248 0-.411.027-.489.079-.065.04-.098.158-.098.355v6.695H114.4zm15.231 0c-.654 0-1.156-.085-1.509-.256-.353-.17-.608-.387-.764-.65a2.388 2.388 0 01-.275-.827 8.852 8.852 0 01-.039-.788v-3.78c0-.198.013-.434.039-.71.04-.288.131-.57.275-.846.156-.276.411-.506.764-.69.365-.183.869-.275 1.509-.275h.999c1.202 0 2.168.026 2.9.079.745.039 1.313.085 1.705.137v-3.88h2.39v12.486h-1.606l-.765-.394a42.96 42.96 0 01-1.979.276 26.76 26.76 0 01-2.665.118h-.979zm.744-1.694h4.252c.275 0 .444-.033.51-.098.065-.066.098-.23.098-.492v-4.707a85.46 85.46 0 00-1.685-.079c-.68-.04-1.405-.059-2.175-.059h-1c-.627 0-.94.263-.94.788v3.86c0 .525.313.787.94.787zM30.167 25.283h.16l.622-7.357.892-1.906-.275-4.094c.067-.85-.676-1.329-1.139-1.525l-.842 2.093-.227-1.808.14-.112-.038-.491.348-.123a.263.263 0 01-.058-.141v-.455c.138-.164.243-.496.305-.873.087-.034.144-.084.218-.48.052-.28-.03-.452-.049-.452.035-.253.082-.755-.042-1.006 0 0 .085-.163.085-.381-.357.054-1.496-.726-1.836-.09-.494-.056-.788.687-.564 1.477 0 0-.277-.013-.166.4.103.388.187.476.332.532.063.377.166.71.305.873v.455a.2.2 0 01-.02.08l.449.16-.04.515.14.112-.233 1.865-1.06-2.12c-.15.058-.339.134-.533.23l-.356 2.665-.154-2.297c.087-1.107-.954-1.698-1.5-1.903a.845.845 0 01-.107-.05l-.877 2.18-.248-1.966.153-.122-.042-.534.41-.145a.105.105 0 01-.005-.03v-.555c.168-.2.296-.606.373-1.065.106-.04.175-.103.265-.585.064-.341-.036-.551-.06-.551.042-.31.1-.921-.051-1.228 0 0 .104-.2.104-.465-.436.066-1.826-.885-2.241-.11-.601-.067-.96.84-.687 1.803 0 0-.338-.018-.203.487.126.473.228.581.405.65.077.458.204.864.373 1.064v.503l.563.2-.043.56.152.123-.255 2.028-1.102-2.206-.03.014c-.286.106-.883.318-1.37.652l-.485 3.63-.225-3.336a1.395 1.395 0 00-.01-.305c-.137-1.074-1.445-1.673-2.056-1.908l-1.221 2.607-.302-2.402.185-.149-.052-.684.503-.18V6.41c.198-.234.348-.71.437-1.248.207-.079.326-.206.475-.76.157-.592-.238-.571-.238-.571.32-1.13-.1-2.19-.806-2.113-.486-.907-2.115.207-2.624.13 0 .31.121.544.121.544-.177.36-.109 1.077-.058 1.439-.03 0-.387.003-.235.57.149.555.266.682.475.76.089.54.238 1.015.435 1.249v.642l.595.211-.05.652.186.149-.322 2.558-1.294-2.763c-.668.255-2.165.946-2.067 2.212l-.168 2.498-.373-2.79c-.487-.335-1.084-.547-1.369-.653a.815.815 0 01-.031-.014L8.83 11.318 8.576 9.29l.152-.122-.043-.56.564-.201v-.503c.168-.2.296-.606.372-1.065.177-.068.279-.176.406-.65.134-.503-.204-.486-.204-.486.273-.964-.085-1.87-.687-1.803-.415-.775-1.805.176-2.24.11 0 .266.104.465.104.465-.151.307-.094.919-.05 1.228-.026 0-.125.21-.061.55.09.483.159.545.266.586.076.46.202.865.371 1.065v.555l-.003.03.408.145-.042.534.153.122-.246 1.966-.878-2.18a.926.926 0 01-.107.05c-.547.205-1.586.796-1.499 1.903l-.155 2.302-.358-2.67a5.873 5.873 0 00-.532-.229l-1.06 2.12-.233-1.866.14-.112-.04-.516.45-.16a.187.187 0 01-.02-.079v-.455c.137-.164.243-.496.305-.873.146-.056.228-.144.332-.533.11-.412-.165-.399-.165-.399.223-.79-.072-1.532-.565-1.478-.34-.635-1.48.145-1.837.091 0 .218.085.381.085.381-.123.251-.076.753-.04 1.006-.02 0-.102.173-.05.452.074.396.13.446.217.48.063.377.167.71.306.873v.455c0 .042-.021.09-.057.14l.346.124-.039.491.14.112-.226 1.807-.842-2.091c-.463.196-1.205.674-1.14 1.524L0 16.02l.893 1.906.623 7.357h.16l-.004.113-.951 1.095.316.398 1.903-.638v-.968h.094l.013-5.46 1.083 5.46h.256l.01.07-.184.954.39.57.75-.057.296-.613-.09-.924h.09l-.446-7.357.332-.71.53 1.131.76 8.975h.194l-.004.138-1.16 1.335.387.486 2.32-.78v-1.179h.114l.018-6.66 1.32 6.66h.312l.014.085-.226 1.165.475.695.917-.07.36-.747-.11-1.128h.11l-.545-8.975.65-1.386.788 1.684v9.669h.238l-.001.05-1.449 1.669.482.607 2.899-.974v-1.352l.91-6.958.91 6.957h.093v1.353l2.897.974.484-.607-1.45-1.669v-.05h.145v-9.669l.872-1.863.734 1.565-.544 8.975h.109l-.11 1.128.36.747.916.07.476-.695-.226-1.165.013-.085h.312l1.322-6.66.016 6.66h.114v1.18l2.321.78.386-.486-1.16-1.336-.003-.138h.194l.76-8.974.529-1.132.333.71-.446 7.357h.089l-.09.925.295.612.752.057.39-.57-.185-.954.01-.07h.257l1.082-5.46.015 5.46h.093v.968l1.902.638.317-.398-.952-1.095-.002-.113z" fill="#007FC6"/></svg>